<?xml version="1.0" encoding="utf-8"?>
<!-- Svg Vector Icons : http://www.onlinewebfonts.com/icon -->
<!DOCTYPE svg PUBLIC "-//W3C//DTD SVG 1.1//EN" "http://www.w3.org/Graphics/SVG/1.1/DTD/svg11.dtd">
<svg version="1.1" xmlns="http://www.w3.org/2000/svg" xmlns:xlink="http://www.w3.org/1999/xlink" x="0px" y="0px" viewBox="0 0 256 256" enable-background="new 0 0 256 256" xml:space="preserve">
<metadata> Svg Vector Icons : http://www.onlinewebfonts.com/icon </metadata>
<g><g><g><path fill="#000000" d="M79.3,38.8c-8.8,1.2-11.1,5.6-6.3,11.6c1,1.2,3.1,3.9,4.9,6c1.7,2.1,3.1,4,3.1,4.3c0,0.2-2.4,1.8-5.4,3.5c-15.4,8.5-31.8,21.1-41.3,31.5c-15.6,17.2-23.4,34.1-24.2,52.4c-1.1,24.3,12,47,37.3,64.4c5.9,4.1,8.7,5.5,10.2,5.1c1.6-0.4,2.6-2.4,2.6-5.2c0-3,1.1-7.5,2.6-10.3c1.7-3.3,4.2-5.9,10.3-10.6c8.6-6.6,13.2-11.9,16.6-19c1.6-3.4,1.8-5.9,0.4-7.2c-1.3-1.3-3.1-1.2-8.3,0.9c-9.8,3.9-18.2,5.3-28.9,4.9c-8.1-0.3-12.8-1.3-18.8-4.2c-5.4-2.6-8.5-5.4-10.5-9.3c-4.4-8.9,0.7-19.7,13.4-28.2c2.2-1.4,5.3-3.2,6.9-4c2.7-1.2,3-1.3,4.1-0.6c0.9,0.5,1.3,1.1,1.4,2.3c0,0.9,0,1.8-0.2,2.1c-0.2,0.3-2.4,1.6-4.8,3c-9.9,5.4-15.5,11.8-16,18.2l-0.2,2.8l2-1.7c6.3-5.4,17.2-8.4,33.2-9c9.9-0.4,16.4,0.3,27.4,2.8c8.3,1.9,14.2,3,19.2,3.7l2.1,0.3l-2.1,4.4c-1.2,2.4-2.2,5.3-2.4,6.4c-0.6,5.9,5.5,8,14.4,4.8c7.5-2.6,18.2-8.2,27.7-14.3c3.6-2.4,4.7-2.9,7.8-3.4c25.3-4.5,46.6-13.5,63.2-26.9c9.4-7.6,18.4-18.2,23.1-27L246,89l-3.2-3.8c-17.6-20.7-44.2-33.6-76.3-36.9c-7.3-0.8-22.7-1-30.4-0.5c-4.5,0.3-4.7,0.3-7.7-1.1c-6.7-3-16.5-5.8-25.7-7.2C96.9,38.6,83.3,38.2,79.3,38.8z M133.1,65.5c1,0.8,1.1,0.9,0.9,10.2c-0.2,19,2.1,35.4,6.4,44.5c1.8,3.9,5,7.2,8.6,9c3.7,1.8,4.6,3,3.7,4.8c-1,2.2-2.5,2.3-6.1,0.6c-3.8-1.8-8.6-6.4-10.6-9.9c-3.1-5.6-6-17.2-7.2-29.3c-0.6-5.9-0.8-26.7-0.3-28.6c0.3-1.1,1.7-2.2,3-2.2C131.8,64.6,132.5,64.9,133.1,65.5z M191.4,77.6c2.1,1.2,3.5,4.5,3.2,7.1c-0.6,5.3-7.2,8.4-11.4,5.3c-3.9-2.9-4.4-8.7-1-11.8C184.6,76.1,188.5,75.8,191.4,77.6z"/></g></g></g>
</svg>